<svg width="51" height="30" viewBox="0 0 51 30" fill="none" xmlns="http://www.w3.org/2000/svg"><path d="M23.9354 11.5793C24.8755 11.1789 25.7459 11.4632 26.599 11.8752C27.4463 12.2815 28.1079 12.943 28.8043 13.5524C29.1931 13.8948 29.5471 14.2836 29.8662 14.6898C30.197 15.1134 30.522 15.5371 30.7193 16.0768C31.0443 16.9821 31.526 17.8294 31.9206 18.7114C32.1179 19.1467 32.2514 19.6109 32.4313 20.0578C32.6402 20.5743 32.8897 21.0734 33.0928 21.5898C33.4236 22.4545 33.8182 23.2902 34.2883 24.0852C34.4914 24.4334 34.7352 24.77 35.0195 25.0486C35.3039 25.3271 35.3735 25.774 35.832 25.9307C36.1163 26.0293 36.1047 26.4994 36.4355 26.6503C36.7024 26.7721 36.981 26.9114 37.1899 27.1145C37.7122 27.6136 38.3448 27.927 38.9715 28.252C39.8884 28.7278 40.846 29.1224 41.8557 29.3604C42.5173 29.5171 43.1847 29.4242 43.8462 29.2907C44.0842 29.2443 44.1654 29.134 44.3975 28.6002C43.4226 27.7819 42.4476 26.9288 42.0878 25.6463C42.2735 25.3561 42.5115 25.4664 42.7204 25.4722C43.5677 25.4896 44.4208 25.5535 45.268 25.4316C46.0399 25.3213 46.7885 25.1414 47.5139 24.8629C47.6706 24.8048 47.7866 24.6423 47.9085 24.5379C47.8214 24.1839 47.5893 24.091 47.3224 24.0504C47.067 24.0098 46.8001 24.0098 46.5505 23.946C45.7265 23.7196 44.9256 23.4469 44.2292 22.913C42.9293 21.9264 41.6004 20.9805 40.2889 19.9998C39.3255 19.2744 38.6117 18.311 37.9618 17.3187C37.3466 16.3786 36.6038 15.5951 35.7797 14.8349C34.0446 13.2274 32.0483 12.0203 30.0113 10.8713C29.0828 10.349 28.0266 10.0472 27.0053 9.69903C26.5874 9.55395 26.1232 9.60618 25.6879 9.76287C25.45 9.84992 25.2121 9.995 24.9451 9.8151C24.8349 9.60038 24.9973 9.4553 25.125 9.36245C25.3629 9.18835 25.6357 9.06068 25.9027 8.9098C27.1736 8.89239 28.4096 9.10711 29.6341 9.42628C30.6381 9.69323 31.6246 10.024 32.5764 10.4593C33.1857 10.7378 33.795 10.9932 34.3695 11.3472C35.4722 12.0203 36.5922 12.6645 37.7354 13.268C39.1456 14.0108 40.6196 14.6144 42.1633 15.0264C42.7958 15.1947 43.44 15.4036 44.1306 15.2585C44.4498 15.1947 44.7922 15.2875 45.1288 15.2875C46.0979 15.2875 47.0612 15.1657 47.9781 14.8755C48.5004 14.7072 48.9995 14.4403 49.4812 14.1617C49.841 13.9528 50.1021 13.6278 50.0209 13.0707C49.8526 12.9605 49.6669 12.7806 49.4406 12.6877C48.0594 12.1306 46.7769 11.3994 45.5582 10.4244C45.9702 10.082 46.33 9.72805 46.742 9.44369C47.6938 8.78793 48.0304 7.85361 48.0594 6.7568C48.0652 6.57109 48.0362 6.3912 48.0188 6.15326C47.8273 6.06621 47.6358 5.98497 47.4849 5.91533C47.363 5.97336 47.2817 5.98497 47.2353 6.0372C46.0398 7.26168 44.5658 7.842 42.8945 8.07413C41.3973 8.28305 39.929 8.09734 38.4666 7.88843C37.1087 7.69692 35.7681 7.40096 34.416 7.16302C33.5049 7.00053 32.5938 6.78581 31.6711 6.70457C30.7542 6.62332 29.814 6.65234 28.9029 6.85545C27.9222 7.07017 26.953 7.33132 26.0709 7.8478C25.8794 7.95807 25.6763 8.03931 25.479 8.12636C25.3281 7.89423 25.4674 7.75495 25.5719 7.61567C26.5004 6.36798 27.2722 5.01003 28.282 3.81456C28.4909 3.57082 28.5895 3.23424 28.7404 2.93247C28.5837 2.60168 28.4677 2.28831 28.2994 2.00395C28.1311 1.71959 27.9222 1.45845 27.6958 1.13927C27.0169 0.878125 26.3553 0.483507 25.6067 0.245575C24.3126 -0.172257 23.1345 -0.0794065 21.9274 0.698226C21.7591 1.04062 21.5444 1.42943 21.3645 1.83566C21.2949 1.99815 21.2136 2.2593 21.2891 2.36956C21.5444 2.73516 21.3761 3.07755 21.3007 3.41994C21.1498 4.11052 21.2659 4.80691 21.231 5.4975C21.1962 6.15907 21.3123 6.82644 21.4052 7.48801C21.4458 7.77817 21.5618 8.06252 21.6837 8.32947C21.8636 8.7357 22.0551 9.14192 22.293 9.51333C22.4671 9.79189 22.4497 10.0704 22.4439 10.2678C21.9158 11.3413 21.4284 12.3337 20.9989 13.21C20.9409 13.918 20.8538 14.5099 20.8597 15.096C20.8713 16.3844 21.0453 17.6204 21.6083 18.8333C22.1363 19.9649 22.9894 20.7542 23.9122 21.468C24.626 22.0135 25.508 22.263 26.4017 21.7233C26.5236 21.6479 26.6571 21.6015 26.7905 21.555C27.7829 21.2126 28.5721 20.5743 29.0364 19.669C29.5703 18.6244 29.6689 17.986 28.7404 16.9183C27.9918 16.0594 27.2374 15.1831 26.3031 14.4925C25.8969 14.1907 25.6067 13.7323 25.2875 13.3261C24.8349 12.7399 24.3996 12.1364 23.9586 11.5445C23.8367 11.6663 23.709 11.7882 23.5814 11.9043C23.5291 11.9507 23.4711 11.9797 23.3667 12.0435C23.2042 11.9449 23.0243 11.8404 22.856 11.736C22.8211 11.2659 23.0765 11.1382 23.4653 11.1498C23.6162 11.2833 23.7729 11.4342 23.9354 11.5793ZM28.9029 12.2118C29.0016 12.177 29.106 12.1364 29.2337 12.09C29.3846 12.2583 29.5064 12.4556 29.6805 12.589C30.9108 13.5466 31.9264 14.7304 33.0754 15.7692C33.1857 15.8679 33.3598 15.9491 33.3888 16.0652C33.5687 16.7848 34.149 17.2432 34.5146 17.841C34.9325 18.5257 35.449 19.1467 35.9306 19.7908C35.9538 19.8257 36.0467 19.8025 36.1511 19.8083C36.1976 19.6342 36.244 19.4601 36.2846 19.3092C36.1105 18.9784 35.9771 18.6708 35.7972 18.3923C35.2633 17.545 34.77 16.6629 34.149 15.8853C33.5049 15.0786 32.7388 14.3706 32.0192 13.622C31.8161 13.4073 31.5724 13.2274 31.555 12.8792C32.3733 13.4073 33.2437 13.8541 33.9691 14.4693C35.2923 15.5951 36.6096 16.75 37.4685 18.3168C37.9327 19.1641 38.6001 19.8779 39.3661 20.4698C40.6544 21.4622 41.9602 22.4371 43.2775 23.3889C43.852 23.8009 44.473 24.1491 45.1403 24.5669C44.9604 24.5959 44.856 24.6249 44.7515 24.6307C43.6779 24.683 42.6101 24.6017 41.5423 24.4508C41.4379 24.4392 41.3276 24.4857 41.1883 24.5147C41.0839 24.741 40.9794 24.9731 40.8808 25.1879C41.1593 26.2789 41.67 27.2074 42.3896 28.0198C42.5057 28.1533 42.6449 28.2926 42.5231 28.5073C42.1517 28.635 41.7687 28.5595 41.4379 28.4261C40.4397 28.0314 39.4242 27.6426 38.5305 27.0275C37.6774 26.4413 36.8708 25.7914 36.1338 25.0544C35.919 24.8455 35.7333 24.6307 35.5824 24.3696C34.7816 23.0349 34.0156 21.6769 33.5223 20.1913C33.0058 18.6418 32.2456 17.1968 31.5898 15.7112C31.2126 14.8639 30.6729 14.1037 30.0229 13.4247C29.6399 13.0243 29.2859 12.6006 28.9203 12.1828C28.694 12.2176 28.6186 12.1306 28.7172 11.7998C28.7985 11.9913 28.8507 12.1016 28.9029 12.2118ZM48.8834 13.4595C48.3205 13.8774 47.7518 14.1617 47.1251 14.243C45.1984 14.4983 43.2775 14.5389 41.3973 13.8832C39.3197 13.1578 37.393 12.1364 35.5244 10.9874C35.0195 10.6798 34.4856 10.4128 33.9691 10.1227C33.708 9.97759 33.4585 9.8151 33.1857 9.69323C32.9013 9.55976 32.5938 9.4553 32.2978 9.34504C32.5647 9.19996 32.8085 9.21156 33.0522 9.2754C34.3464 9.61199 35.6289 9.995 36.8592 10.5173C37.7877 10.9119 38.751 11.1673 39.7665 11.1905C39.9929 11.1963 40.2192 11.2021 40.3295 10.9351C40.2308 10.6217 39.929 10.6334 39.6969 10.5521C38.6117 10.1749 37.5033 9.84992 36.4297 9.4495C34.3405 8.67186 32.2398 7.96387 29.9707 7.96967C29.4484 7.96967 28.9377 7.95226 28.4329 8.11475C28.3168 8.15538 28.1543 8.21921 28.0846 7.98708C28.3806 7.84781 28.6766 7.71433 28.9609 7.58086C29.2627 7.58086 29.5703 7.62148 29.8547 7.56925C30.7542 7.42417 31.642 7.56925 32.5125 7.69692C34.0852 7.93485 35.6463 8.25403 37.2131 8.56741C38.6001 8.84596 40.0045 8.98524 41.4147 8.99104C42.9467 9.00265 44.444 8.81694 45.8077 8.0161C46.1733 7.80138 46.597 7.67371 47.0322 7.49961C46.7885 8.25984 46.5099 8.64285 45.9238 8.99684C45.4131 9.29861 44.8792 9.56556 44.3801 9.88474C44.2176 9.98919 44.1422 10.2155 44.0493 10.349C44.3511 11.0918 45.1229 11.0686 45.5814 11.5212C46.0166 11.9507 46.6608 12.1538 47.1947 12.4846C47.7344 12.8038 48.4192 12.8444 48.8834 13.4595ZM25.3223 21.1894C23.5756 20.3596 22.3975 19.0654 21.9681 17.162C21.7185 16.071 21.7475 14.951 21.8404 13.8483C21.8752 13.4595 22.0899 13.0823 22.2408 12.7109C22.2698 12.6355 22.4033 12.6007 22.5194 12.531C22.5774 12.6587 22.6819 12.7747 22.6586 12.8386C22.531 13.1926 22.7051 13.5002 22.8153 13.7961C23.0591 14.4461 23.2912 15.096 23.5697 15.7344C23.8483 16.3786 24.2139 16.9821 24.5273 17.6088C25.0786 18.7173 25.9258 19.4949 27.0749 19.9475C27.191 19.994 27.278 20.1158 27.3883 20.2145C26.8196 20.7774 26.129 20.9457 25.3223 21.1894ZM26.1986 1.43524C26.1115 1.60933 26.1058 1.65576 26.0767 1.67897C25.9955 1.74861 25.9084 1.81825 25.8156 1.88209C24.9973 2.4392 24.4576 3.23424 24.0108 4.09311C23.5001 5.07966 23.0126 6.07202 23.0591 7.25007C23.0765 7.6505 23.001 8.09154 22.7979 8.58482C22.4265 7.97548 22.2292 7.43578 22.2234 6.82063C22.2176 6.37959 22.1131 5.93274 22.1015 5.49169C22.0783 4.64442 22.0319 3.80876 22.322 2.96729C22.4961 2.46821 22.7805 1.95172 22.6354 1.33078C23.0591 1.13347 23.4885 0.930355 23.8831 0.750455C24.7014 0.878126 25.421 1.12767 26.1986 1.43524ZM23.3782 12.2176C23.7903 12.7864 24.0863 13.1636 24.3474 13.564C24.7942 14.2546 25.2759 14.9045 26.0071 15.3282C26.129 15.3978 26.2218 15.5313 26.3205 15.6415C26.9762 16.3902 27.7307 17.0575 28.3284 17.8642C28.369 17.9222 28.4038 17.986 28.4619 18.0789C28.4561 18.3052 28.4561 18.5606 28.4502 18.8623C28.2587 18.9668 28.0847 19.1061 27.8874 19.1583C27.4173 19.286 27.0111 19.1061 26.6571 18.8043C26.0071 18.2472 25.4906 17.5856 25.0786 16.8312C24.5215 15.8214 24.1384 14.7478 23.6626 13.7091C23.4653 13.2854 23.5059 12.8502 23.3782 12.2176ZM27.5798 2.65391C27.6842 2.9963 27.6146 3.21683 27.4405 3.44315C26.9936 4.02348 26.5758 4.62701 26.1406 5.21894C25.7924 5.69481 25.421 6.15326 25.1076 6.64654C24.7072 7.2965 24.2081 7.90584 24.1443 8.71829C24.1385 8.78212 24.0398 8.83435 23.9063 8.97363C23.7322 6.77421 24.3242 4.94039 25.6125 3.32129C25.7924 3.08916 25.9839 2.83962 26.2334 2.70034C26.512 2.54365 26.8486 2.46821 27.1678 2.43339C27.307 2.42759 27.4695 2.59588 27.5798 2.65391Z" fill="#91ADA3" fill-opacity="0.5"></path><path d="M16.7858 15.9781C18.2772 15.1192 18.4629 13.7903 18.283 12.3511C17.7491 11.7592 17.1456 11.6025 16.4318 11.7998C16.0546 11.9042 15.6658 11.9623 15.2421 11.9391C15.3988 11.852 15.5497 11.7418 15.718 11.6779C16.3912 11.4052 16.838 10.9003 17.3139 10.3606C18.4165 9.09549 18.6486 7.59245 18.7879 6.03138C18.6312 5.3466 18.4919 4.65602 18.3062 3.97704C18.2656 3.82615 18.0567 3.7217 17.8942 3.57081C15.5961 4.01186 14.0525 5.38722 12.9963 7.46478C12.857 7.24425 12.7293 7.09917 12.6655 6.93668C12.3347 6.072 11.7022 5.46266 11.0116 4.88234C10.2688 4.25559 9.49114 3.70429 8.59164 3.26904C8.42334 3.33288 8.25505 3.40252 8.08676 3.46635C7.59348 4.53995 7.12341 5.60774 7.20466 6.7858C7.2801 7.8652 7.21047 9.02004 8.15639 9.81508C7.90685 10.0588 7.73855 9.96597 7.58767 9.90794C6.95512 9.1303 6.32257 8.35847 5.6552 7.53442C5.71904 7.34871 5.8293 7.11078 5.88733 6.86124C5.98598 6.4376 5.88733 6.04879 5.54494 5.75282C5.06908 5.33499 4.59901 4.91136 3.94324 4.78369C3.20043 4.77208 2.61431 5.09126 2.33576 5.76443C2.01658 6.51885 2.04558 7.29068 2.6143 7.97546C3.27006 8.36428 3.89683 8.02189 4.57 7.81297C5.21416 8.4049 5.85831 9.00263 6.35158 9.74545C6.40381 9.82089 6.3632 9.95436 6.3632 10.1169C5.63779 10.2677 4.91819 10.4128 4.2334 10.5521C3.29908 9.79187 3.29908 9.79187 2.39958 9.80928C2.28352 9.91374 2.14424 10.0356 2.01657 10.1691C1.8889 10.3026 1.78444 10.4534 1.62195 10.6507C1.61615 11.0105 1.61615 11.4168 1.61035 11.8288C1.8715 12.119 2.12104 12.3917 2.33576 12.6297C3.17722 12.9778 3.82718 12.6238 4.50616 12.1944C4.5874 12.0377 4.68606 11.8404 4.78472 11.6489C4.84275 11.6025 4.89497 11.5386 4.95881 11.5154C5.79447 11.2195 6.64175 10.9583 7.51803 10.819C7.8082 10.7726 8.02871 10.8423 8.22022 11.1963C8.06353 11.498 7.87203 11.8578 7.68052 12.2176C7.79079 12.9082 8.06934 13.4595 8.48137 13.947C7.814 14.2604 7.28591 14.5041 6.64755 14.8001C6.51408 14.9567 6.29935 15.2121 6.06142 15.4906C5.99178 15.7924 5.91634 16.1116 5.82929 16.4714C6.05562 16.7499 6.28774 17.0343 6.51407 17.3129C4.86595 18.7405 4.72668 18.9842 3.8562 21.822C3.89102 22.0657 4.01289 22.2456 4.27403 22.263C4.71508 22.292 5.14451 22.3907 5.57395 22.4835C6.85066 22.7679 7.9823 22.321 9.0501 21.6653C9.26482 21.5318 9.4331 21.3171 9.60139 21.1198C9.83932 20.847 10.0598 20.5569 10.2862 20.2667C10.3384 20.0288 10.2107 19.9301 9.9786 19.8953C9.17775 20.2667 8.63807 21.0617 7.76178 21.3229C7.33814 21.4506 6.90869 21.5376 6.49666 21.6363C6.37479 21.4389 6.40962 21.3229 6.52569 21.1952C6.82746 20.8818 7.07119 20.5453 7.48322 20.3189C8.02292 20.023 8.46396 19.5355 8.94562 19.1293C9.20097 18.9145 9.4505 18.7056 9.70585 18.4909C10.054 18.7172 9.9612 19.1003 10.0657 19.3266C10.3674 19.5645 10.6228 19.7618 10.9129 19.9881C11.9111 19.8024 12.7351 19.2627 13.5244 18.6186C14.0177 18.9958 14.273 19.6225 15.0158 19.6922C15.2247 19.6458 15.5149 19.5819 15.7992 19.5181C16.751 18.5373 16.8612 17.3361 16.7858 15.9781ZM17.6273 7.07596C17.6099 6.9599 17.5982 6.84383 17.575 6.68714C17.8362 6.81482 17.8362 6.94249 17.6969 7.09917C17.7317 7.20363 17.813 7.31389 17.7955 7.40675C17.5344 8.78791 16.6987 9.80348 15.66 10.6798C15.5265 10.7958 15.306 10.9757 15.0216 10.732C15.0216 10.5347 15.1203 10.3316 15.2944 10.2039C15.9501 9.69902 16.3447 8.97362 16.8496 8.34106C17.0527 8.07992 17.25 7.83038 17.2791 7.46478C17.2849 7.3313 17.4996 7.20944 17.6273 7.07596ZM5.37664 21.4157C5.20835 21.3867 4.99944 21.4331 4.91239 21.1836C4.95301 21.0559 5.00524 20.9167 5.03425 20.7716C5.20835 19.9011 5.75966 19.2453 6.29356 18.5896C6.57792 18.2472 6.93191 17.9686 7.39617 18.0209C7.58188 17.7771 7.73276 17.574 7.94168 17.3071C8.522 17.4753 9.07331 17.0749 9.7755 17.1678C9.61881 17.3593 9.54336 17.487 9.4389 17.5798C8.69609 18.2472 7.96489 18.9262 7.19886 19.5703C6.68818 19.9998 6.13686 20.377 5.60877 20.7832C5.38824 20.9515 5.26639 21.1662 5.36504 21.4622C5.49852 21.5202 5.70743 21.2591 5.81188 21.6014C5.63779 21.526 5.50431 21.4738 5.37664 21.4157ZM8.80054 12.4033C8.8992 12.1538 9.00947 11.8868 9.09651 11.6605C9.70585 11.44 10.2513 11.4748 10.8839 11.6431C11.1741 11.9797 11.499 12.4149 12.12 12.2815C12.6655 11.736 12.7584 10.9583 13.1008 10.3258C13.2052 10.32 13.2806 10.3026 13.3445 10.32C13.7681 10.436 13.7507 10.9119 14.0699 11.1846C13.9944 11.5967 13.9016 12.0261 13.8436 12.4672C13.8261 12.6006 13.8958 12.7457 13.9306 12.8908C14.1511 13.0011 14.3426 13.0997 14.4993 13.1752C15.4685 13.1403 16.3331 12.6993 17.2791 12.7283C17.3429 12.8618 17.4183 12.9546 17.4241 13.0533C17.488 13.8541 17.2268 14.5099 16.5421 14.9625C16.2055 15.1831 15.805 15.334 15.66 15.8504C16.0314 16.541 15.9269 17.3012 15.6716 18.0557C15.5439 18.4271 15.3118 18.6998 14.8069 18.665C14.4065 18.1485 14.1395 17.4289 13.3155 17.3071C13.24 17.3593 13.1124 17.3941 13.0601 17.4812C12.6365 18.1311 11.9865 18.4967 11.3482 18.8681C11.1857 18.961 11.0058 19.0132 10.8143 18.7869C10.8491 18.6476 10.8839 18.4677 10.9361 18.2994C11.0464 17.9454 11.1973 17.603 11.2843 17.2432C11.4062 16.7383 11.4874 16.2218 11.0696 15.746C10.6286 15.7112 10.2049 15.804 9.7755 15.9433C9.24741 16.1116 8.7019 16.2335 8.1622 16.3611C7.71535 16.4656 7.2917 16.4134 6.89708 16.1522C6.9319 16.0129 6.96093 15.9085 7.00156 15.7576C7.45421 15.5487 7.91846 15.3281 8.44655 15.0844C8.95724 15.0612 9.54336 15.0322 10.1295 15.0032C10.1875 14.8117 10.2281 14.6724 10.2746 14.5099C10.025 14.1849 9.80451 13.8367 9.53176 13.5466C9.23579 13.2564 8.97464 12.9546 8.80054 12.4033ZM10.5415 9.96597C9.89155 9.85571 9.41569 9.62938 8.96884 9.28699C8.5394 8.95621 8.30728 8.54418 8.19121 8.00448C7.96489 6.95409 8.09255 5.93853 8.3653 4.92877C8.42333 4.72565 8.5278 4.51674 8.81216 4.42388C10.5357 5.29437 11.8705 6.53626 12.3753 8.53257C12.2303 10.082 12.2303 10.082 11.6441 10.9641C11.47 10.8887 11.4584 10.7378 11.5049 10.5927C11.6325 10.2213 11.5861 9.85571 11.441 9.50751C11 8.45713 10.5763 7.39514 10.0889 6.36216C9.89155 5.95013 9.66522 5.49168 9.16034 5.3524C8.78893 5.56132 8.82377 5.85148 8.95724 6.14164C9.27062 6.80901 9.58978 7.47638 9.92637 8.13215C10.2049 8.68346 10.3616 9.27538 10.5415 9.96597ZM13.4199 9.14771C13.6579 7.76655 14.2498 6.68134 15.2363 5.82827C15.9269 5.23053 16.6697 4.71405 17.6447 4.51674C17.6911 4.83591 17.7259 5.09126 17.7665 5.3582C17.6215 5.28276 17.4938 5.22473 17.2791 5.11447C17.1398 5.65997 16.8554 6.13584 16.7162 6.66974C16.3622 7.99287 15.3872 8.84595 14.4645 9.76866C14.1047 9.55394 13.7913 9.36243 13.4199 9.14771ZM2.93349 6.51885C3.10178 6.26931 3.27587 5.99656 3.43256 5.76443C4.63382 5.83407 4.81953 5.96174 4.99363 6.84963C4.43652 6.9657 3.8736 7.08757 3.30488 7.20363C3.27587 7.20943 3.24106 7.17461 3.1366 7.12819C3.08437 6.98311 3.02054 6.78 2.93349 6.51885ZM3.54282 11.6721C3.13079 11.9391 2.84062 11.9159 2.63171 11.6547C2.50404 11.498 2.46342 11.2659 2.38798 11.0744C2.52726 10.9351 2.63172 10.8365 2.73618 10.732C3.34552 10.7668 3.36292 11.2485 3.54282 11.6721ZM17.7375 5.97335C17.7665 6.01977 17.7955 6.0604 17.8246 6.10682C17.7955 6.0662 17.7665 6.01977 17.7375 5.97335Z" fill="#91ADA3" fill-opacity="0.5"></path><path d="M11.2551 2.4044C11.6962 2.79902 11.8877 3.45479 12.5608 3.80298C12.7698 3.81459 13.0541 3.832 13.3153 3.84361C13.3791 3.72174 13.4081 3.6579 13.4662 3.54764C13.2631 3.15883 12.8394 2.96152 12.5318 2.65975C12.1894 2.32896 11.9515 1.98077 12.1314 1.42366C12.3868 1.08707 12.793 0.930384 13.2398 0.889761C13.6635 1.23215 13.6635 1.23215 13.8027 1.81828C13.6577 1.99238 13.4952 2.18969 13.3095 2.41601C13.4023 2.5669 13.4894 2.71198 13.5532 2.81063C14.0639 2.86866 14.2786 2.52627 14.5804 2.30575C14.8763 1.3192 14.4527 0.605403 13.7099 0.0308838C11.8006 0.0715064 11.1333 0.715665 11.2551 2.4044Z" fill="#91ADA3" fill-opacity="0.5"></path><path d="M17.1399 21.822C17.4533 22.5996 17.8827 22.9826 18.5965 23.0232C19.1769 23.0581 19.5889 22.7969 19.8965 22.3559C20.2098 21.909 20.2911 21.4157 19.9719 20.9167C19.8733 20.76 19.792 20.5975 19.7108 20.4292C19.5483 20.1042 19.2465 19.9707 18.9447 19.8373C18.3586 19.5819 17.0529 20.348 16.9775 20.9109C16.9426 21.2184 16.9484 21.3983 17.1399 21.822ZM19.2813 21.8162C19.0318 21.9322 18.8461 22.0193 18.6894 22.0947C18.1033 21.7581 18.1091 21.7523 17.9466 21.1488C18.1091 21.0153 18.2948 20.8644 18.4515 20.731C19.0202 20.8702 19.1536 21.2707 19.2813 21.8162Z" fill="#91ADA3" fill-opacity="0.5"></path><path d="M2.39375 15.2527C1.44202 14.9915 0.832677 15.479 0.194321 16.0419C-0.0900369 16.5758 -0.00299692 17.1329 0.258148 17.7017C0.432245 18.0789 0.71661 18.2936 1.11703 18.311C1.54647 18.3284 1.95269 18.2007 2.12679 17.7713C2.22544 17.5276 2.33571 17.3477 2.56203 17.1794C2.82898 16.9763 2.86961 16.599 2.88122 16.2567C2.88702 15.9027 2.88122 15.891 2.39375 15.2527ZM1.9527 16.0303C1.767 16.8196 1.52325 17.2838 1.27371 17.3361C0.937126 17.2084 0.902306 16.953 1.00096 16.5874C1.26211 16.3785 1.49424 16.0419 1.9527 16.0303Z" fill="#91ADA3" fill-opacity="0.5"></path><path d="M12.8918 15.5603C13.1703 15.3166 13.3735 15.1309 13.5998 14.9336C13.4953 14.6492 13.4083 14.4171 13.3038 14.1444C13.0137 14.0863 12.7409 14.0341 12.5146 13.9935C12.1838 14.301 12.1954 14.626 12.2534 15.0381C12.3985 15.1541 12.5842 15.3108 12.8918 15.5603Z" fill="#91ADA3" fill-opacity="0.5"></path></svg>