<svg width="51" height="30" viewBox="0 0 51 30" fill="none" xmlns="http://www.w3.org/2000/svg"><path d="M26.1003 11.5793C25.1602 11.1789 24.2897 11.4632 23.4366 11.8752C22.5894 12.2815 21.9278 12.943 21.2314 13.5524C20.8426 13.8948 20.4886 14.2836 20.1694 14.6898C19.8386 15.1134 19.5136 15.5371 19.3163 16.0768C18.9913 16.9821 18.5097 17.8294 18.115 18.7114C17.9177 19.1467 17.7843 19.6109 17.6044 20.0578C17.3954 20.5743 17.1459 21.0734 16.9428 21.5898C16.612 22.4545 16.2174 23.2902 15.7473 24.0852C15.5442 24.4334 15.3005 24.77 15.0161 25.0486C14.7318 25.3271 14.6621 25.774 14.2037 25.9307C13.9193 26.0293 13.9309 26.4994 13.6001 26.6503C13.3332 26.7721 13.0546 26.9114 12.8457 27.1145C12.3234 27.6136 11.6909 27.927 11.0641 28.252C10.1472 28.7278 9.18968 29.1224 8.17991 29.3604C7.51834 29.5171 6.85098 29.4242 6.18941 29.2907C5.95148 29.2443 5.87023 29.134 5.6381 28.6002C6.61304 27.7819 7.58801 26.9288 7.94781 25.6463C7.7621 25.3561 7.52415 25.4664 7.31524 25.4722C6.46797 25.4896 5.61488 25.5535 4.76761 25.4316C3.99578 25.3213 3.24717 25.1414 2.52176 24.8629C2.36508 24.8048 2.24902 24.6423 2.12715 24.5379C2.2142 24.1839 2.44633 24.091 2.71328 24.0504C2.96862 24.0098 3.23558 24.0098 3.48512 23.946C4.30918 23.7196 5.11003 23.4469 5.80641 22.913C7.10634 21.9264 8.43526 20.9805 9.74679 19.9998C10.7101 19.2744 11.4239 18.311 12.0739 17.3187C12.689 16.3786 13.4319 15.5951 14.2559 14.8349C15.9911 13.2274 17.9874 12.0203 20.0243 10.8713C20.9528 10.349 22.009 10.0472 23.0304 9.69903C23.4482 9.55395 23.9125 9.60618 24.3477 9.76287C24.5856 9.84992 24.8236 9.995 25.0905 9.8151C25.2008 9.60038 25.0383 9.4553 24.9106 9.36245C24.6727 9.18835 24.3999 9.06068 24.133 8.9098C22.8621 8.89239 21.626 9.10711 20.4015 9.42628C19.3976 9.69323 18.411 10.024 17.4593 10.4593C16.8499 10.7378 16.2406 10.9932 15.6661 11.3472C14.5635 12.0203 13.4435 12.6645 12.3002 13.268C10.89 14.0108 9.41602 14.6144 7.87236 15.0264C7.23981 15.1947 6.59564 15.4036 5.90506 15.2585C5.58588 15.1947 5.24347 15.2875 4.90688 15.2875C3.93774 15.2875 2.97442 15.1657 2.05751 14.8755C1.53522 14.7072 1.03613 14.4403 0.554462 14.1617C0.194662 13.9528 -0.0664787 13.6278 0.0147667 13.0707C0.18306 12.9605 0.368763 12.7806 0.595089 12.6877C1.97626 12.1306 3.25877 11.3994 4.47745 10.4244C4.06542 10.082 3.70563 9.72805 3.2936 9.44369C2.34188 8.78793 2.00528 7.85361 1.97626 6.7568C1.97046 6.57109 1.99948 6.3912 2.01689 6.15326C2.20839 6.06621 2.39989 5.98497 2.55077 5.91533C2.67264 5.97336 2.75392 5.98497 2.80034 6.0372C3.99581 7.26168 5.46982 7.842 7.14115 8.07413C8.63838 8.28305 10.1066 8.09734 11.569 7.88843C12.927 7.69692 14.2675 7.40096 15.6197 7.16302C16.5308 7.00053 17.4419 6.78581 18.3646 6.70457C19.2815 6.62332 20.2216 6.65234 21.1327 6.85545C22.1135 7.07017 23.0826 7.33132 23.9647 7.8478C24.1562 7.95807 24.3593 8.03931 24.5566 8.12636C24.7075 7.89423 24.5682 7.75495 24.4638 7.61567C23.5353 6.36798 22.7634 5.01003 21.7537 3.81456C21.5448 3.57082 21.4461 3.23424 21.2952 2.93247C21.4519 2.60168 21.568 2.28831 21.7362 2.00395C21.9045 1.71959 22.1135 1.45845 22.3398 1.13927C23.0188 0.878125 23.6803 0.483507 24.429 0.245575C25.7231 -0.172257 26.9011 -0.0794065 28.1082 0.698226C28.2765 1.04062 28.4912 1.42943 28.6711 1.83566C28.7408 1.99815 28.822 2.2593 28.7466 2.36956C28.4912 2.73516 28.6595 3.07755 28.7349 3.41994C28.8858 4.11052 28.7698 4.80691 28.8046 5.4975C28.8394 6.15907 28.7233 6.82644 28.6305 7.48801C28.5899 7.77817 28.4738 8.06252 28.3519 8.32947C28.172 8.7357 27.9805 9.14192 27.7426 9.51333C27.5685 9.79189 27.5859 10.0704 27.5917 10.2678C28.1198 11.3413 28.6073 12.3337 29.0367 13.21C29.0948 13.918 29.1818 14.5099 29.176 15.096C29.1644 16.3844 28.9903 17.6204 28.4274 18.8333C27.8993 19.9649 27.0462 20.7542 26.1235 21.468C25.4097 22.0135 24.5276 22.263 23.6339 21.7233C23.512 21.6479 23.3786 21.6015 23.2451 21.555C22.2528 21.2126 21.4635 20.5743 20.9993 19.669C20.4654 18.6244 20.3667 17.986 21.2952 16.9183C22.0439 16.0594 22.7982 15.1831 23.7326 14.4925C24.1388 14.1907 24.4289 13.7323 24.7481 13.3261C25.2008 12.7399 25.636 12.1364 26.0771 11.5445C26.199 11.6663 26.3266 11.7882 26.4543 11.9043C26.5065 11.9507 26.5645 11.9797 26.669 12.0435C26.8315 11.9449 27.0114 11.8404 27.1797 11.736C27.2145 11.2659 26.9592 11.1382 26.5703 11.1498C26.4195 11.2833 26.2628 11.4342 26.1003 11.5793ZM21.1327 12.2118C21.0341 12.177 20.9296 12.1364 20.8019 12.09C20.6511 12.2583 20.5292 12.4556 20.3551 12.589C19.1248 13.5466 18.1092 14.7304 16.9602 15.7692C16.8499 15.8679 16.6759 15.9491 16.6468 16.0652C16.4669 16.7848 15.8866 17.2432 15.521 17.841C15.1032 18.5257 14.5867 19.1467 14.105 19.7908C14.0818 19.8257 13.989 19.8025 13.8845 19.8083C13.8381 19.6342 13.7917 19.4601 13.751 19.3092C13.9251 18.9784 14.0586 18.6708 14.2385 18.3923C14.7724 17.545 15.2657 16.6629 15.8866 15.8853C16.5308 15.0786 17.2968 14.3706 18.0164 13.622C18.2195 13.4073 18.4632 13.2274 18.4806 12.8792C17.6624 13.4073 16.7919 13.8541 16.0665 14.4693C14.7434 15.5951 13.426 16.75 12.5672 18.3168C12.1029 19.1641 11.4355 19.8779 10.6695 20.4698C9.38121 21.4622 8.07545 22.4371 6.75812 23.3889C6.1836 23.8009 5.56267 24.1491 4.8953 24.5669C5.0752 24.5959 5.17965 24.6249 5.28411 24.6307C6.35771 24.683 7.42552 24.6017 8.49331 24.4508C8.59777 24.4392 8.70802 24.4857 8.8473 24.5147C8.95176 24.741 9.0562 24.9731 9.15485 25.1879C8.8763 26.2789 8.36563 27.2074 7.64603 28.0198C7.52996 28.1533 7.3907 28.2926 7.51256 28.5073C7.88397 28.635 8.26698 28.5595 8.59776 28.4261C9.59592 28.0314 10.6115 27.6426 11.5052 27.0275C12.3583 26.4413 13.1649 25.7914 13.9019 25.0544C14.1166 24.8455 14.3023 24.6307 14.4532 24.3696C15.2541 23.0349 16.0201 21.6769 16.5133 20.1913C17.0298 18.6418 17.7901 17.1968 18.4458 15.7112C18.823 14.8639 19.3627 14.1037 20.0127 13.4247C20.3957 13.0243 20.7497 12.6006 21.1153 12.1828C21.3417 12.2176 21.4171 12.1306 21.3184 11.7998C21.2372 11.9913 21.185 12.1016 21.1327 12.2118ZM1.15221 13.4595C1.71512 13.8774 2.28382 14.1617 2.91057 14.243C4.83724 14.4983 6.75814 14.5389 8.63839 13.8832C10.7159 13.1578 12.6426 12.1364 14.5113 10.9874C15.0161 10.6798 15.55 10.4128 16.0665 10.1227C16.3277 9.97759 16.5772 9.8151 16.8499 9.69323C17.1343 9.55976 17.4419 9.4553 17.7379 9.34504C17.4709 9.19996 17.2271 9.21156 16.9834 9.2754C15.6893 9.61199 14.4068 9.995 13.1765 10.5173C12.248 10.9119 11.2847 11.1673 10.2691 11.1905C10.0428 11.1963 9.81643 11.2021 9.70617 10.9351C9.80482 10.6217 10.1066 10.6334 10.3387 10.5521C11.4239 10.1749 12.5324 9.84992 13.606 9.4495C15.6951 8.67186 17.7959 7.96387 20.065 7.96967C20.5872 7.96967 21.0979 7.95226 21.6028 8.11475C21.7189 8.15538 21.8814 8.21921 21.951 7.98708C21.655 7.84781 21.3591 7.71433 21.0747 7.58086C20.7729 7.58086 20.4653 7.62148 20.181 7.56925C19.2815 7.42417 18.3936 7.56925 17.5231 7.69692C15.9505 7.93485 14.3894 8.25403 12.8225 8.56741C11.4355 8.84596 10.0311 8.98524 8.62096 8.99104C7.08891 9.00265 5.59167 8.81694 4.22792 8.0161C3.86231 7.80138 3.43869 7.67371 3.00344 7.49961C3.24718 8.25984 3.52572 8.64285 4.11185 8.99684C4.62253 9.29861 5.15645 9.56556 5.65552 9.88474C5.81801 9.98919 5.89346 10.2155 5.98631 10.349C5.68454 11.0918 4.91271 11.0686 4.45425 11.5212C4.01901 11.9507 3.37483 12.1538 2.84094 12.4846C2.30124 12.8038 1.61647 12.8444 1.15221 13.4595ZM24.7133 21.1894C26.4601 20.3596 27.6382 19.0654 28.0676 17.162C28.3171 16.071 28.2881 14.951 28.1952 13.8483C28.1604 13.4595 27.9457 13.0823 27.7948 12.7109C27.7658 12.6355 27.6323 12.6007 27.5163 12.531C27.4582 12.6587 27.3538 12.7747 27.377 12.8386C27.5047 13.1926 27.3306 13.5002 27.2203 13.7961C26.9766 14.4461 26.7445 15.096 26.4659 15.7344C26.1873 16.3786 25.8217 16.9821 25.5083 17.6088C24.957 18.7173 24.1098 19.4949 22.9608 19.9475C22.8447 19.994 22.7576 20.1158 22.6474 20.2145C23.2161 20.7774 23.9067 20.9457 24.7133 21.1894ZM23.8371 1.43524C23.9241 1.60933 23.9299 1.65576 23.9589 1.67897C24.0401 1.74861 24.1272 1.81825 24.22 1.88209C25.0383 2.4392 25.578 3.23424 26.0248 4.09311C26.5355 5.07966 27.023 6.07202 26.9766 7.25007C26.9592 7.6505 27.0346 8.09154 27.2377 8.58482C27.6091 7.97548 27.8064 7.43578 27.8122 6.82063C27.8181 6.37959 27.9225 5.93274 27.9341 5.49169C27.9573 4.64442 28.0038 3.80876 27.7136 2.96729C27.5395 2.46821 27.2551 1.95172 27.4002 1.33078C26.9766 1.13347 26.5472 0.930355 26.1525 0.750455C25.3343 0.878126 24.6147 1.12767 23.8371 1.43524ZM26.6574 12.2176C26.2454 12.7864 25.9494 13.1636 25.6882 13.564C25.2414 14.2546 24.7597 14.9045 24.0285 15.3282C23.9067 15.3978 23.8138 15.5313 23.7152 15.6415C23.0594 16.3902 22.305 17.0575 21.7072 17.8642C21.6666 17.9222 21.6318 17.986 21.5738 18.0789C21.5796 18.3052 21.5796 18.5606 21.5854 18.8623C21.7769 18.9668 21.951 19.1061 22.1483 19.1583C22.6184 19.286 23.0246 19.1061 23.3786 18.8043C24.0285 18.2472 24.545 17.5856 24.9571 16.8312C25.5142 15.8214 25.8972 14.7478 26.3731 13.7091C26.5704 13.2854 26.5297 12.8502 26.6574 12.2176ZM22.4559 2.65391C22.3514 2.9963 22.4211 3.21683 22.5952 3.44315C23.042 4.02348 23.4598 4.62701 23.8951 5.21894C24.2433 5.69481 24.6147 6.15326 24.928 6.64654C25.3284 7.2965 25.8275 7.90584 25.8914 8.71829C25.8972 8.78212 25.9958 8.83435 26.1293 8.97363C26.3034 6.77421 25.7115 4.94039 24.4231 3.32129C24.2432 3.08916 24.0517 2.83962 23.8022 2.70034C23.5236 2.54365 23.1871 2.46821 22.8679 2.43339C22.7286 2.42759 22.5661 2.59588 22.4559 2.65391Z" fill="#91ADA3" fill-opacity="0.5"></path><path d="M33.2494 15.9781C31.7579 15.1192 31.5722 13.7903 31.7521 12.3511C32.286 11.7592 32.8896 11.6025 33.6034 11.7998C33.9806 11.9042 34.3694 11.9623 34.793 11.9391C34.6363 11.852 34.4855 11.7418 34.3172 11.6779C33.644 11.4052 33.1972 10.9003 32.7213 10.3606C31.6187 9.09549 31.3865 7.59245 31.2472 6.03138C31.4039 5.3466 31.5432 4.65602 31.7289 3.97704C31.7695 3.82615 31.9785 3.7217 32.141 3.57081C34.439 4.01186 35.9827 5.38722 37.0389 7.46478C37.1782 7.24425 37.3058 7.09917 37.3697 6.93668C37.7004 6.072 38.333 5.46266 39.0236 4.88234C39.7664 4.25559 40.544 3.70429 41.4435 3.26904C41.6118 3.33288 41.7801 3.40252 41.9484 3.46635C42.4417 4.53995 42.9117 5.60774 42.8305 6.7858C42.7551 7.8652 42.8247 9.02004 41.8788 9.81508C42.1283 10.0588 42.2966 9.96597 42.4475 9.90794C43.08 9.1303 43.7126 8.35847 44.38 7.53442C44.3161 7.34871 44.2059 7.11078 44.1478 6.86124C44.0492 6.4376 44.1478 6.04879 44.4902 5.75282C44.9661 5.33499 45.4361 4.91136 46.0919 4.78369C46.8347 4.77208 47.4208 5.09126 47.6994 5.76443C48.0186 6.51885 47.9896 7.29068 47.4209 7.97546C46.7651 8.36428 46.1383 8.02189 45.4652 7.81297C44.821 8.4049 44.1769 9.00263 43.6836 9.74545C43.6313 9.82089 43.672 9.95436 43.672 10.1169C44.3974 10.2677 45.117 10.4128 45.8018 10.5521C46.7361 9.79187 46.7361 9.79187 47.6356 9.80928C47.7516 9.91374 47.8909 10.0356 48.0186 10.1691C48.1463 10.3026 48.2507 10.4534 48.4132 10.6507C48.419 11.0105 48.419 11.4168 48.4248 11.8288C48.1637 12.119 47.9141 12.3917 47.6994 12.6297C46.8579 12.9778 46.208 12.6238 45.529 12.1944C45.4478 12.0377 45.3491 11.8404 45.2504 11.6489C45.1924 11.6025 45.1402 11.5386 45.0763 11.5154C44.2407 11.2195 43.3934 10.9583 42.5171 10.819C42.227 10.7726 42.0064 10.8423 41.8149 11.1963C41.9716 11.498 42.1631 11.8578 42.3546 12.2176C42.2444 12.9082 41.9658 13.4595 41.5538 13.947C42.2212 14.2604 42.7493 14.5041 43.3876 14.8001C43.5211 14.9567 43.7358 15.2121 43.9737 15.4906C44.0434 15.7924 44.1188 16.1116 44.2059 16.4714C43.9795 16.7499 43.7474 17.0343 43.5211 17.3129C45.1692 18.7405 45.3085 18.9842 46.179 21.822C46.1441 22.0657 46.0223 22.2456 45.7611 22.263C45.3201 22.292 44.8906 22.3907 44.4612 22.4835C43.1845 22.7679 42.0529 22.321 40.9851 21.6653C40.7703 21.5318 40.6021 21.3171 40.4338 21.1198C40.1958 20.847 39.9753 20.5569 39.749 20.2667C39.6968 20.0288 39.8244 19.9301 40.0566 19.8953C40.8574 20.2667 41.3971 21.0617 42.2734 21.3229C42.697 21.4506 43.1265 21.5376 43.5385 21.6363C43.6604 21.4389 43.6255 21.3229 43.5095 21.1952C43.2077 20.8818 42.964 20.5453 42.5519 20.3189C42.0122 20.023 41.5712 19.5355 41.0895 19.1293C40.8342 18.9145 40.5847 18.7056 40.3293 18.4909C39.9811 18.7172 40.074 19.1003 39.9695 19.3266C39.6677 19.5645 39.4124 19.7618 39.1222 19.9881C38.1241 19.8024 37.3 19.2627 36.5108 18.6186C36.0175 18.9958 35.7622 19.6225 35.0193 19.6922C34.8104 19.6458 34.5203 19.5819 34.2359 19.5181C33.2842 18.5373 33.1739 17.3361 33.2494 15.9781ZM32.4079 7.07596C32.4253 6.9599 32.4369 6.84383 32.4601 6.68714C32.199 6.81482 32.199 6.94249 32.3383 7.09917C32.3034 7.20363 32.2222 7.31389 32.2396 7.40675C32.5008 8.78791 33.3364 9.80348 34.3752 10.6798C34.5087 10.7958 34.7292 10.9757 35.0135 10.732C35.0135 10.5347 34.9149 10.3316 34.7408 10.2039C34.085 9.69902 33.6904 8.97362 33.1855 8.34106C32.9824 8.07992 32.7851 7.83038 32.7561 7.46478C32.7503 7.3313 32.5356 7.20944 32.4079 7.07596ZM44.6585 21.4157C44.8268 21.3867 45.0357 21.4331 45.1228 21.1836C45.0821 21.0559 45.0299 20.9167 45.0009 20.7716C44.8268 19.9011 44.2755 19.2453 43.7416 18.5896C43.4572 18.2472 43.1032 17.9686 42.639 18.0209C42.4533 17.7771 42.3024 17.574 42.0935 17.3071C41.5132 17.4753 40.9618 17.0749 40.2597 17.1678C40.4163 17.3593 40.4918 17.487 40.5963 17.5798C41.3391 18.2472 42.0703 18.9262 42.8363 19.5703C43.347 19.9998 43.8983 20.377 44.4264 20.7832C44.6469 20.9515 44.7688 21.1662 44.6701 21.4622C44.5366 21.5202 44.3277 21.2591 44.2233 21.6014C44.3974 21.526 44.5308 21.4738 44.6585 21.4157ZM41.2346 12.4033C41.136 12.1538 41.0257 11.8868 40.9386 11.6605C40.3293 11.44 39.7838 11.4748 39.1513 11.6431C38.8611 11.9797 38.5361 12.4149 37.9152 12.2815C37.3697 11.736 37.2768 10.9583 36.9344 10.3258C36.8299 10.32 36.7545 10.3026 36.6907 10.32C36.267 10.436 36.2844 10.9119 35.9653 11.1846C36.0407 11.5967 36.1336 12.0261 36.1916 12.4672C36.209 12.6006 36.1394 12.7457 36.1045 12.8908C35.884 13.0011 35.6925 13.0997 35.5358 13.1752C34.5667 13.1403 33.702 12.6993 32.7561 12.7283C32.6923 12.8618 32.6168 12.9546 32.611 13.0533C32.5472 13.8541 32.8083 14.5099 33.4931 14.9625C33.8297 15.1831 34.2301 15.334 34.3752 15.8504C34.0038 16.541 34.1082 17.3012 34.3636 18.0557C34.4912 18.4271 34.7234 18.6998 35.2282 18.665C35.6287 18.1485 35.8956 17.4289 36.7197 17.3071C36.7951 17.3593 36.9228 17.3941 36.975 17.4812C37.3987 18.1311 38.0486 18.4967 38.687 18.8681C38.8495 18.961 39.0294 19.0132 39.2209 18.7869C39.1861 18.6476 39.1512 18.4677 39.099 18.2994C38.9887 17.9454 38.8379 17.603 38.7508 17.2432C38.629 16.7383 38.5477 16.2218 38.9655 15.746C39.4066 15.7112 39.8302 15.804 40.2597 15.9433C40.7878 16.1116 41.3333 16.2335 41.873 16.3611C42.3198 16.4656 42.7435 16.4134 43.1381 16.1522C43.1033 16.0129 43.0742 15.9085 43.0336 15.7576C42.5809 15.5487 42.1167 15.3281 41.5886 15.0844C41.0779 15.0612 40.4918 15.0322 39.9057 15.0032C39.8476 14.8117 39.807 14.6724 39.7606 14.5099C40.0101 14.1849 40.2306 13.8367 40.5034 13.5466C40.7994 13.2564 41.0605 12.9546 41.2346 12.4033ZM39.4936 9.96597C40.1436 9.85571 40.6195 9.62938 41.0663 9.28699C41.4958 8.95621 41.7279 8.54418 41.8439 8.00448C42.0703 6.95409 41.9426 5.93853 41.6699 4.92877C41.6118 4.72565 41.5074 4.51674 41.223 4.42388C39.4994 5.29437 38.1647 6.53626 37.6598 8.53257C37.8049 10.082 37.8049 10.082 38.391 10.9641C38.5651 10.8887 38.5767 10.7378 38.5303 10.5927C38.4026 10.2213 38.4491 9.85571 38.5941 9.50751C39.0352 8.45713 39.4588 7.39514 39.9463 6.36216C40.1436 5.95013 40.3699 5.49168 40.8748 5.3524C41.2462 5.56132 41.2114 5.85148 41.0779 6.14164C40.7645 6.80901 40.4454 7.47638 40.1088 8.13215C39.8302 8.68346 39.6735 9.27538 39.4936 9.96597ZM36.6152 9.14771C36.3773 7.76655 35.7854 6.68134 34.7988 5.82827C34.1082 5.23053 33.3654 4.71405 32.3905 4.51674C32.3441 4.83591 32.3092 5.09126 32.2686 5.3582C32.4137 5.28276 32.5414 5.22473 32.7561 5.11447C32.8954 5.65997 33.1797 6.13584 33.319 6.66974C33.673 7.99287 34.6479 8.84595 35.5707 9.76866C35.9305 9.55394 36.2438 9.36243 36.6152 9.14771ZM47.1017 6.51885C46.9334 6.26931 46.7593 5.99656 46.6026 5.76443C45.4013 5.83407 45.2156 5.96174 45.0415 6.84963C45.5986 6.9657 46.1616 7.08757 46.7303 7.20363C46.7593 7.20943 46.7941 7.17461 46.8986 7.12819C46.9508 6.98311 47.0146 6.78 47.1017 6.51885ZM46.4923 11.6721C46.9044 11.9391 47.1945 11.9159 47.4034 11.6547C47.5311 11.498 47.5717 11.2659 47.6472 11.0744C47.5079 10.9351 47.4034 10.8365 47.299 10.732C46.6896 10.7668 46.6722 11.2485 46.4923 11.6721ZM32.2976 5.97335C32.2686 6.01977 32.2396 6.0604 32.2106 6.10682C32.2396 6.0662 32.2686 6.01977 32.2976 5.97335Z" fill="#91ADA3" fill-opacity="0.5"></path><path d="M38.7805 2.4044C38.3395 2.79902 38.148 3.45479 37.4748 3.80298C37.2659 3.81459 36.9815 3.832 36.7204 3.84361C36.6565 3.72174 36.6275 3.6579 36.5695 3.54764C36.7726 3.15883 37.1962 2.96152 37.5038 2.65975C37.8462 2.32896 38.0841 1.98077 37.9042 1.42366C37.6489 1.08707 37.2427 0.930384 36.7958 0.889761C36.3722 1.23215 36.3722 1.23215 36.2329 1.81828C36.378 1.99238 36.5405 2.18969 36.7262 2.41601C36.6333 2.5669 36.5463 2.71198 36.4824 2.81063C35.9718 2.86866 35.757 2.52627 35.4553 2.30575C35.1593 1.3192 35.5829 0.605403 36.3257 0.0308838C38.235 0.0715064 38.9024 0.715665 38.7805 2.4044Z" fill="#91ADA3" fill-opacity="0.5"></path><path d="M32.8957 21.822C32.5823 22.5996 32.1529 22.9826 31.4391 23.0232C30.8588 23.0581 30.4468 22.7969 30.1392 22.3559C29.8258 21.909 29.7446 21.4157 30.0637 20.9167C30.1624 20.76 30.2436 20.5975 30.3249 20.4292C30.4874 20.1042 30.7892 19.9707 31.0909 19.8373C31.677 19.5819 32.9827 20.348 33.0582 20.9109C33.093 21.2184 33.0872 21.3983 32.8957 21.822ZM30.7543 21.8162C31.0039 21.9322 31.1895 22.0193 31.3462 22.0947C31.9324 21.7581 31.9266 21.7523 32.0891 21.1488C31.9266 21.0153 31.7409 20.8644 31.5842 20.731C31.0155 20.8702 30.882 21.2707 30.7543 21.8162Z" fill="#91ADA3" fill-opacity="0.5"></path><path d="M47.6417 15.2527C48.5934 14.9915 49.2027 15.479 49.8411 16.0419C50.1254 16.5758 50.0384 17.1329 49.7773 17.7017C49.6032 18.0789 49.3188 18.2936 48.9184 18.311C48.4889 18.3284 48.0827 18.2007 47.9086 17.7713C47.81 17.5276 47.6997 17.3477 47.4734 17.1794C47.2064 16.9763 47.1658 16.599 47.1542 16.2567C47.1484 15.9027 47.1542 15.891 47.6417 15.2527ZM48.0827 16.0303C48.2684 16.8196 48.5121 17.2838 48.7617 17.3361C49.0983 17.2084 49.1331 16.953 49.0344 16.5874C48.7733 16.3785 48.5412 16.0419 48.0827 16.0303Z" fill="#91ADA3" fill-opacity="0.5"></path><path d="M37.1434 15.5603C36.8648 15.3166 36.6617 15.1309 36.4354 14.9336C36.5398 14.6492 36.6269 14.4171 36.7313 14.1444C37.0215 14.0863 37.2942 14.0341 37.5206 13.9935C37.8513 14.301 37.8397 14.626 37.7817 15.0381C37.6366 15.1541 37.4509 15.3108 37.1434 15.5603Z" fill="#91ADA3" fill-opacity="0.5"></path></svg>